<?xml version="1.0" encoding="UTF-8" standalone="no"?>
<svg
   xmlns:dc="http://purl.org/dc/elements/1.1/"
   xmlns:cc="http://creativecommons.org/ns#"
   xmlns:rdf="http://www.w3.org/1999/02/22-rdf-syntax-ns#"
   xmlns:svg="http://www.w3.org/2000/svg"
   xmlns="http://www.w3.org/2000/svg"
   xmlns:sodipodi="http://sodipodi.sourceforge.net/DTD/sodipodi-0.dtd"
   xmlns:inkscape="http://www.inkscape.org/namespaces/inkscape"
   version="1.1"
   x="0px"
   y="0px"
   width="192px"
   height="133px"
   viewBox="0 0 192 133"
   enableBackground="new 0 0 192 133"
   id="svg6"
   sodipodi:docname="humidity_light.svg"
   inkscape:version="1.0.1 (0767f8302a, 2020-10-17)">
  <metadata
     id="metadata10">
    <rdf:RDF>
      <cc:Work
         rdf:about="">
        <dc:format>image/svg+xml</dc:format>
        <dc:type
           rdf:resource="http://purl.org/dc/dcmitype/StillImage" />
      </cc:Work>
    </rdf:RDF>
  </metadata>
  <sodipodi:namedview
     pagecolor="#ffffff"
     bordercolor="#666666"
     borderopacity="1"
     objecttolerance="10"
     gridtolerance="10"
     guidetolerance="10"
     inkscape:pageopacity="0"
     inkscape:pageshadow="2"
     inkscape:window-width="1296"
     inkscape:window-height="704"
     id="namedview8"
     showgrid="false"
     inkscape:zoom="4.2706767"
     inkscape:cx="94.430545"
     inkscape:cy="87.277706"
     inkscape:window-x="70"
     inkscape:window-y="27"
     inkscape:window-maximized="1"
     inkscape:current-layer="svg6" />
  <defs
     id="defs2" />
  <path
     fill="none"
     stroke="current"
     strokeWidth="10"
     strokeMiterlimit="10"
     d="M186.86,97.451c0-15.922-12.099-29.02-27.604-30.6  c0.24-1.553,0.367-3.144,0.367-4.763c0-16.99-13.772-30.763-30.762-30.763c-4.478,0-8.725,0.964-12.561,2.684  C110.217,17.096,94.038,5,75.031,5C50.813,5,31.18,24.634,31.18,48.852c0,6.362,1.365,12.401,3.804,17.857  C18.354,67.125,5,80.724,5,97.451c0,16.989,13.771,30.763,30.762,30.763h123.862v-0.207  C174.953,126.257,186.86,113.248,186.86,97.451z"
     id="path4"
     style="stroke:#fdd79d;stroke-opacity:1;stroke-width:10;stroke-miterlimit:4;stroke-dasharray:none" />
</svg>
