<?xml version="1.0" encoding="utf-8"?>
<!-- Generator: Adobe Illustrator 15.0.0, SVG Export Plug-In  -->
<!DOCTYPE svg PUBLIC "-//W3C//DTD SVG 1.1//EN" "http://www.w3.org/Graphics/SVG/1.1/DTD/svg11.dtd" [
	<!ENTITY ns_flows "http://ns.adobe.com/Flows/1.0/">
]>
<svg version="1.1"
	 xmlns="http://www.w3.org/2000/svg" xmlns:xlink="http://www.w3.org/1999/xlink" xmlns:a="http://ns.adobe.com/AdobeSVGViewerExtensions/3.0/"
	 x="0px" y="0px" width="627px" height="181px" viewBox="0 0 627 181" enable-background="new 0 0 627 181" xml:space="preserve">
<defs>
</defs>
<path fill="#30a256" d="M445.385,55.117c-8.221-7.868-19.855-11.857-34.58-11.857h-29.128c-3.313,0-6,2.687-6,6s2.687,6,6,6h29.128
	c22.544,0,34.64,11.124,35.06,32.178h-35.06c-0.033,0-0.065,0.004-0.099,0.005c-0.033,0-0.065-0.005-0.099-0.005
	c-14.725,0-26.359,3.989-34.58,11.857c-8.294,7.938-12.5,19.196-12.5,33.459s4.206,25.521,12.5,33.459
	c8.221,7.868,19.855,11.857,34.58,11.857h41.277c3.313,0,6-2.687,6-6V93.438v-4.861C457.885,74.313,453.679,63.055,445.385,55.117z
	 M375.527,132.754c0-21.796,12.131-33.316,35.08-33.316c0.033,0,0.065-0.004,0.099-0.005c0.033,0,0.065,0.005,0.099,0.005h35.08
	v66.633h-35.277C387.658,166.071,375.527,154.55,375.527,132.754z"/>
<path fill="#30a256" d="M246.592,24.99c0-11.046-8.955-20-20-20c-11.047,0-20,8.954-20,20c0,8.955,5.886,16.533,14,19.082v5.142
	v122.857c0,3.313,2.687,6,6,6s6-2.687,6-6V49.213v-5.142C240.705,41.522,246.592,33.945,246.592,24.99z M226.592,37.324
	c-6.813,0-12.334-5.522-12.334-12.334s5.521-12.334,12.334-12.334c6.811,0,12.333,5.522,12.333,12.334
	S233.402,37.324,226.592,37.324z"/>
<path fill="#30a256" d="M334.385,55.117c-8.219-7.866-19.851-11.855-34.569-11.857c-0.002,0-0.003,0-0.004,0l-39.207-0.047
	c-0.002,0-0.004,0-0.007,0c-0.207,0-0.411,0.011-0.613,0.031c-0.071,0.007-0.139,0.022-0.209,0.032
	c-0.129,0.018-0.26,0.033-0.386,0.059c-0.078,0.016-0.152,0.04-0.229,0.059c-0.116,0.029-0.234,0.054-0.348,0.089
	c-0.031,0.01-0.062,0.024-0.094,0.034c-0.154,0.051-0.308,0.104-0.457,0.167c-0.051,0.021-0.099,0.049-0.148,0.072
	c-0.127,0.058-0.254,0.115-0.376,0.181c-0.02,0.011-0.037,0.023-0.057,0.034c-0.149,0.083-0.297,0.171-0.438,0.266
	c-0.011,0.007-0.021,0.016-0.031,0.023c-0.148,0.102-0.292,0.208-0.43,0.322c-0.023,0.019-0.043,0.04-0.065,0.059
	c-0.124,0.106-0.246,0.214-0.361,0.329c-0.018,0.018-0.032,0.038-0.05,0.055c-0.117,0.12-0.23,0.242-0.338,0.371
	c-0.021,0.027-0.041,0.058-0.063,0.085c-0.098,0.122-0.193,0.246-0.281,0.376c-0.024,0.036-0.044,0.076-0.068,0.112
	c-0.081,0.125-0.161,0.251-0.232,0.382c-0.023,0.044-0.042,0.091-0.065,0.136c-0.065,0.128-0.131,0.255-0.187,0.388
	c-0.025,0.059-0.044,0.122-0.067,0.182c-0.047,0.122-0.096,0.243-0.135,0.369c-0.023,0.076-0.039,0.155-0.06,0.232
	c-0.03,0.114-0.064,0.226-0.089,0.342c-0.018,0.09-0.027,0.183-0.041,0.274c-0.018,0.107-0.039,0.213-0.05,0.322
	c-0.009,0.093-0.009,0.189-0.015,0.283c-0.006,0.109-0.017,0.216-0.017,0.326c0,0.001,0,0.002,0,0.004c0,0.001,0,0.002,0,0.003
	v122.857c0,3.313,2.687,6,6,6s6-2.687,6-6V55.221l33.2,0.04c0.002,0,0.004,0,0.007,0c22.949,0,35.08,11.521,35.08,33.316v4.861
	v78.633c0,3.313,2.687,6,6,6s6-2.687,6-6V93.438v-4.861C346.885,74.313,342.679,63.055,334.385,55.117z"/>
<path fill="#30a256" d="M627.073,49.252c0-3.313-2.687-6-6-6s-6,2.687-6,6v116.851l-33.2-0.04c-0.002,0-0.004,0-0.007,0
	c-22.949,0-35.08-11.521-35.08-33.316v-4.862V49.252c0-3.313-2.687-6-6-6s-6,2.687-6,6v78.633v4.862
	c0,14.264,4.206,25.521,12.5,33.459c8.219,7.866,19.85,11.855,34.57,11.857c0.001,0,0.002,0,0.003,0l39.207,0.047
	c0.002,0,0.004,0,0.007,0c0.207,0,0.412-0.011,0.613-0.031c0.07-0.007,0.139-0.021,0.209-0.031c0.129-0.019,0.26-0.033,0.387-0.06
	c0.077-0.016,0.15-0.039,0.228-0.059c0.116-0.028,0.233-0.054,0.348-0.089c0.027-0.009,0.054-0.021,0.081-0.03
	c0.159-0.052,0.316-0.106,0.47-0.172c0.037-0.016,0.072-0.036,0.109-0.053c0.141-0.063,0.28-0.127,0.415-0.2
	c0.023-0.013,0.046-0.028,0.069-0.041c0.146-0.082,0.288-0.166,0.425-0.259c0.039-0.026,0.074-0.057,0.112-0.083
	c0.118-0.085,0.237-0.17,0.35-0.262c0.041-0.034,0.078-0.072,0.118-0.107c0.104-0.091,0.21-0.182,0.309-0.28
	c0.032-0.032,0.061-0.069,0.093-0.103c0.101-0.105,0.201-0.211,0.294-0.323c0.033-0.041,0.063-0.085,0.095-0.127
	c0.086-0.109,0.173-0.219,0.251-0.335c0.034-0.05,0.063-0.104,0.095-0.156c0.07-0.111,0.143-0.222,0.206-0.338
	c0.031-0.06,0.058-0.122,0.088-0.183c0.057-0.113,0.115-0.225,0.164-0.342c0.03-0.071,0.053-0.146,0.081-0.219
	c0.041-0.11,0.086-0.219,0.121-0.331c0.03-0.1,0.053-0.203,0.078-0.305c0.023-0.09,0.051-0.179,0.069-0.27
	c0.021-0.104,0.033-0.213,0.049-0.318c0.014-0.093,0.033-0.184,0.043-0.277c0.01-0.1,0.01-0.202,0.016-0.304
	c0.005-0.102,0.016-0.203,0.016-0.307c0-0.001,0-0.002,0-0.004c0-0.001,0-0.002,0-0.003V49.252z"/>
<path fill="#30a256" d="M523.561,165.154c-22.949,0-35.08-11.521-35.08-33.316v-4.862V40.113h20.422c3.313,0,6-2.687,6-6
	s-2.687-6-6-6H488.48V10.081c0-3.313-2.687-6-6-6s-6,2.687-6,6v116.895v4.862c0,14.264,4.206,25.521,12.5,33.459
	c8.221,7.868,19.855,11.857,34.58,11.857c3.313,0,6-2.687,6-6S526.874,165.154,523.561,165.154z"/>
<path fill="#30a256" d="M159.157,0H22.055C9.875,0,0,9.874,0,22.054v137.103c0,12.181,9.875,22.055,22.055,22.055h64.041v-81.091
	c0-13.611-7.069-21.36-21.017-23.044c-3.208,6.262-10.831,10.87-18.208,10.87c-9.263,0-31.054-7.364-31.054-17.438
	c0-10.075,21.791-17.439,31.054-17.439c7.729,0,15.521,4.901,18.528,11.53c8.761,0.895,15.984,3.663,21.521,8.246
	c2.795-13.773,12.668-22.607,27.485-24.489c2.985-6.668,10.794-11.601,18.559-11.601c9.263,0,31.054,7.364,31.054,17.438
	s-21.791,17.438-31.054,17.438c-7.326,0-14.923-4.566-18.158-10.773c-10.938,1.705-16.26,8.444-16.26,20.571v99.783h60.61
	c12.18,0,22.054-9.874,22.054-22.055V22.054C181.211,9.874,171.337,0,159.157,0z"/>
<path fill="#30a256" d="M24.798,70.509c0,3.757,16.004,8.457,22.073,8.457c4.786,0,10.858-3.982,10.858-8.457
	s-6.072-8.456-10.858-8.456C40.802,62.053,24.798,66.751,24.798,70.509z"/>
<path fill="#30a256" d="M155.038,54.194c0-3.758-16.004-8.457-22.073-8.457c-4.786,0-10.858,3.981-10.858,8.457
	c0,4.476,6.072,8.458,10.858,8.458C139.034,62.652,155.038,57.952,155.038,54.194z"/>
</svg>
