<?xml version="1.0" encoding="utf-8"?>
<!-- Generator: Adobe Illustrator 15.0.0, SVG Export Plug-In  -->
<!DOCTYPE svg PUBLIC "-//W3C//DTD SVG 1.1//EN" "http://www.w3.org/Graphics/SVG/1.1/DTD/svg11.dtd" [
	<!ENTITY ns_flows "http://ns.adobe.com/Flows/1.0/">
]>
<svg version="1.1"
	 xmlns="http://www.w3.org/2000/svg" xmlns:xlink="http://www.w3.org/1999/xlink" xmlns:a="http://ns.adobe.com/AdobeSVGViewerExtensions/3.0/"
	 x="0px" y="0px" width="609px" height="431px" viewBox="0 0 609 431" enable-background="new 0 0 609 431" xml:space="preserve">
<defs>
</defs>
<line fill="none" stroke="#fdd79d" stroke-miterlimit="10" x1="326.188" y1="214.901" x2="326.958" y2="214.901"/>
<g>
	<path fill="none" stroke="#fdd79d" stroke-width="3" stroke-miterlimit="10" d="M7.335,305.038C3.851,303.291,1,298.674,1,294.775
		v-51.248c0-3.898,1.979-9.588,4.396-12.645L168.808,24.31c2.418-3.057,7.516-6.221,11.328-7.032l74.127-15.761
		c3.813-0.811,10.013-0.65,13.778,0.355l321.181,85.806c3.766,1.006,7.602,4.927,8.525,8.714l8.132,33.356
		c0.924,3.787,1.679,10.074,1.679,13.971v50.566c0,3.897-2.615,8.912-5.812,11.142L517.2,264.437
		c-3.196,2.23-8.479,5.803-11.74,7.938L267.123,428.426c-3.261,2.135-8.779,2.453-12.264,0.706L7.335,305.038z"/>
</g>
<g>
	<path fill="none" stroke="#fdd79d" stroke-width="2" stroke-miterlimit="10" d="M254.733,350.729c3.554,1.601,8.762,0.701,11.573-1.998
		l233.895-224.582c2.812-2.7,2.059-5.832-1.672-6.96L179.987,20.804c-3.73-1.129-8.761,0.449-11.179,3.506L5.396,230.883
		c-2.418,3.057-1.489,6.867,2.065,8.468L254.733,350.729z"/>
</g>
<g>
	<path fill="none" stroke="#fdd79d" stroke-width="2" stroke-miterlimit="10" d="M263.946,350.145c-1.003,0.495-1.436,0.797-0.962,0.672
		c0.474-0.124,3.575-1.904,6.89-3.954L509.66,198.565c3.315-2.05,8.721-5.434,12.014-7.52l74.556-47.235
		c3.292-2.086,7.188-4.554,8.657-5.484s1.916-4.79,0.992-8.577l-8.132-33.356c-0.924-3.787-4.709-5.892-8.413-4.678l-77.287,25.32
		c-3.704,1.214-9.035,4.415-11.846,7.115L270.882,344.338C268.07,347.037,264.949,349.65,263.946,350.145z"/>
</g>
<g>
	<path fill="none" stroke="#fdd79d" stroke-width="2" stroke-miterlimit="10" d="M1,269.151l253.795,120.777c3.52,1.675,9.091,1.336,12.382-0.753
		l242.026-153.644c3.291-2.089,8.621-5.589,11.846-7.779l86.509-58.75"/>
</g>
<g>
	<path fill="none" stroke="#fdd79d" stroke-width="2" stroke-miterlimit="10" d="M511.389,268.492l5.508-68.35c0.313-3.885,0.052-10.21-0.582-14.057
		l-9.145-55.563c-0.634-3.846-1.794-7.493-2.58-8.105c-0.785-0.611-1.428-1.112-1.428-1.112"/>
</g>
<g>
	<path fill="none" stroke="#fdd79d" stroke-width="2" stroke-linecap="round" stroke-miterlimit="10" d="M482.781,196.879
		c-0.162,1.551,0.762,2.931,2.055,3.066s2.484-1.021,2.646-2.572l5.053-48.065c0.162-1.551-0.762-2.931-2.055-3.066
		s-2.484,1.021-2.646,2.572L482.781,196.879z"/>
</g>
<g>
	<path fill="none" stroke="#fdd79d" stroke-width="2" stroke-linecap="round" stroke-miterlimit="10" d="M467.282,208.689
		c-0.162,1.551,0.762,2.931,2.055,3.066s2.484-1.021,2.646-2.572l5.053-48.065c0.162-1.551-0.762-2.931-2.055-3.066
		s-2.484,1.021-2.646,2.572L467.282,208.689z"/>
</g>
<g>
	<path fill="none" stroke="#fdd79d" stroke-width="2" stroke-linecap="round" stroke-miterlimit="10" d="M450.78,222.979
		c-0.162,1.551,0.762,2.931,2.055,3.066s2.484-1.021,2.646-2.572l5.053-48.065c0.162-1.551-0.762-2.931-2.055-3.066
		s-2.484,1.021-2.646,2.572L450.78,222.979z"/>
</g>
</svg>
