<?xml version="1.0" encoding="utf-8"?>
<!-- Generator: Adobe Illustrator 15.0.0, SVG Export Plug-In  -->
<!DOCTYPE svg PUBLIC "-//W3C//DTD SVG 1.1//EN" "http://www.w3.org/Graphics/SVG/1.1/DTD/svg11.dtd" [
	<!ENTITY ns_flows "http://ns.adobe.com/Flows/1.0/">
]>
<svg version="1.1"
	 xmlns="http://www.w3.org/2000/svg" xmlns:xlink="http://www.w3.org/1999/xlink" xmlns:a="http://ns.adobe.com/AdobeSVGViewerExtensions/3.0/"
	 x="0px" y="0px" width="489px" height="289px" viewBox="0 0 489 289" enable-background="new 0 0 489 289" xml:space="preserve">
<defs>
</defs>
<path fill="#006633" d="M0,243.672c0,25.049,20.306,45.354,45.354,45.354h398.352c25.049,0,45.354-20.306,45.354-45.354V45.354
	C489.061,20.306,468.755,0,443.706,0H45.354C20.306,0,0,20.306,0,45.354V243.672z"/>
<path fill="#9AC992" d="M373.857,31.306c-9.082,0-18.774,6.057-21.934,14.351c-18.75,2.025-30.879,12.877-34.005,30.257
	c-0.501-0.512-1.013-1.015-1.55-1.495c-6.988-6.239-16.428-9.863-28.104-10.833c-3.189-8.255-12.852-14.275-21.906-14.275
	c-11.047,0-37,8.955-37,20c0,11.047,25.953,20,37,20c8.843,0,18.264-5.742,21.67-13.7c14.453,1.418,29.08,8.365,29.08,30.675v6
	v136.098h12V112.286v-6V85.311c0-16.46,7.771-25.727,23.11-27.63c3.435,7.919,12.822,13.625,21.638,13.625c11.047,0,37-8.954,37-20
	S384.904,31.306,373.857,31.306z M266.359,81.645c-6.813,0-29.334-5.521-29.334-12.334c0-6.811,22.521-12.332,29.334-12.332
	c6.811,0,15.332,5.521,15.332,12.332C281.691,76.123,273.17,81.645,266.359,81.645z M373.857,63.64
	c-6.811,0-15.332-5.522-15.332-12.334s8.521-12.333,15.332-12.333c6.813,0,29.334,5.521,29.334,12.333S380.67,63.64,373.857,63.64z"
	/>
<path fill="#9AC992" d="M282.654,125.43c-8.221-7.868-19.855-11.857-34.58-11.857h-29.128c-3.313,0-6,2.687-6,6s2.687,6,6,6h29.128
	c22.543,0,34.639,11.124,35.061,32.178h-35.061c-0.033,0-0.065,0.004-0.099,0.005c-0.033,0-0.065-0.005-0.099-0.005
	c-14.725,0-26.359,3.989-34.58,11.857c-8.294,7.938-12.5,19.196-12.5,33.459s4.206,25.521,12.5,33.459
	c8.221,7.868,19.855,11.857,34.58,11.857h41.277c3.313,0,6-2.687,6-6v-78.633v-4.861
	C295.154,144.626,290.948,133.368,282.654,125.43z M212.797,203.067c0-21.796,12.131-33.316,35.08-33.316
	c0.033,0,0.065-0.004,0.099-0.005c0.033,0,0.065,0.005,0.099,0.005h35.08v66.633h-35.277
	C224.928,236.384,212.797,224.863,212.797,203.067z"/>
<path fill="#9AC992" d="M79.861,95.303c0-11.046-8.955-20-20-20c-11.047,0-20,8.954-20,20c0,8.955,5.886,16.533,14,19.082v5.142
	v122.857c0,3.313,2.687,6,6,6s6-2.687,6-6V119.526v-5.142C73.975,111.835,79.861,104.258,79.861,95.303z M59.861,107.637
	c-6.813,0-12.334-5.522-12.334-12.334s5.521-12.334,12.334-12.334c6.811,0,12.333,5.522,12.333,12.334
	S66.672,107.637,59.861,107.637z"/>
<path fill="#9AC992" d="M170.654,125.43c-8.219-7.866-19.85-11.855-34.57-11.857c-0.001,0-0.002,0-0.003,0l-39.207-0.047
	c-0.002,0-0.004,0-0.007,0c-0.207,0-0.412,0.011-0.613,0.031c-0.07,0.007-0.139,0.022-0.209,0.032
	c-0.129,0.018-0.26,0.033-0.386,0.059c-0.078,0.016-0.152,0.04-0.229,0.059c-0.116,0.029-0.233,0.054-0.348,0.089
	c-0.031,0.01-0.062,0.024-0.093,0.034c-0.155,0.051-0.309,0.104-0.458,0.167c-0.051,0.021-0.099,0.049-0.148,0.072
	c-0.127,0.058-0.255,0.115-0.376,0.181c-0.02,0.011-0.037,0.023-0.057,0.034c-0.149,0.083-0.297,0.171-0.438,0.266
	c-0.011,0.007-0.021,0.016-0.031,0.023c-0.147,0.102-0.292,0.208-0.431,0.322c-0.021,0.019-0.042,0.04-0.064,0.059
	c-0.124,0.106-0.246,0.214-0.361,0.329c-0.018,0.018-0.032,0.038-0.05,0.055c-0.116,0.12-0.23,0.242-0.337,0.371
	c-0.023,0.027-0.042,0.058-0.064,0.085c-0.098,0.122-0.193,0.246-0.281,0.376c-0.024,0.036-0.045,0.076-0.068,0.112
	c-0.08,0.125-0.161,0.251-0.232,0.382c-0.023,0.044-0.043,0.091-0.065,0.136c-0.065,0.128-0.131,0.255-0.187,0.388
	c-0.025,0.059-0.044,0.122-0.067,0.182c-0.047,0.122-0.096,0.243-0.135,0.369c-0.023,0.076-0.039,0.155-0.06,0.232
	c-0.031,0.114-0.064,0.226-0.088,0.342c-0.019,0.09-0.028,0.183-0.043,0.274c-0.017,0.107-0.037,0.213-0.049,0.322
	c-0.01,0.093-0.01,0.189-0.015,0.283c-0.006,0.109-0.017,0.216-0.017,0.326c0,0.001,0,0.002,0,0.004c0,0.001,0,0.002,0,0.003
	v122.857c0,3.313,2.687,6,6,6s6-2.687,6-6v-116.85l33.2,0.04c0.002,0,0.004,0,0.007,0c22.949,0,35.08,11.521,35.08,33.316v4.861
	v78.633c0,3.313,2.687,6,6,6s6-2.687,6-6v-78.633v-4.861C183.154,144.626,178.948,133.368,170.654,125.43z"/>
<path fill="#9AC992" d="M443.343,119.565c0-3.313-2.687-6-6-6s-6,2.687-6,6v116.851l-33.2-0.04c-0.002,0-0.004,0-0.007,0
	c-22.949,0-35.08-11.521-35.08-33.316v-4.862v-78.633c0-3.313-2.687-6-6-6s-6,2.687-6,6v78.633v4.862
	c0,14.264,4.206,25.521,12.5,33.459c8.219,7.866,19.851,11.855,34.569,11.857c0.002,0,0.003,0,0.004,0l39.207,0.047
	c0.002,0,0.004,0,0.007,0c0.207,0,0.411-0.011,0.613-0.031c0.071-0.007,0.139-0.021,0.209-0.031c0.129-0.019,0.26-0.033,0.386-0.06
	c0.078-0.016,0.152-0.039,0.229-0.059c0.116-0.028,0.234-0.054,0.348-0.089c0.027-0.009,0.053-0.021,0.081-0.03
	c0.159-0.052,0.316-0.106,0.47-0.172c0.037-0.016,0.072-0.036,0.109-0.053c0.141-0.063,0.281-0.127,0.415-0.2
	c0.024-0.013,0.046-0.028,0.069-0.041c0.145-0.082,0.288-0.166,0.426-0.259c0.038-0.026,0.073-0.057,0.111-0.083
	c0.119-0.085,0.237-0.17,0.35-0.262c0.041-0.034,0.078-0.072,0.117-0.107c0.105-0.091,0.211-0.182,0.31-0.28
	c0.032-0.032,0.062-0.069,0.093-0.103c0.101-0.105,0.201-0.211,0.294-0.323c0.034-0.041,0.063-0.085,0.095-0.127
	c0.086-0.109,0.172-0.219,0.251-0.335c0.034-0.05,0.063-0.104,0.095-0.156c0.07-0.111,0.143-0.222,0.205-0.338
	c0.033-0.06,0.059-0.122,0.089-0.183c0.057-0.113,0.114-0.225,0.164-0.342c0.03-0.071,0.054-0.146,0.081-0.219
	c0.041-0.11,0.086-0.219,0.121-0.331c0.031-0.1,0.053-0.203,0.078-0.305c0.023-0.09,0.051-0.179,0.069-0.27
	c0.021-0.104,0.033-0.213,0.05-0.318c0.014-0.093,0.032-0.184,0.042-0.277c0.01-0.1,0.011-0.202,0.016-0.304
	s0.016-0.203,0.016-0.307c0-0.001,0-0.002,0-0.004c0-0.001,0-0.002,0-0.003V119.565z"/>
</svg>
