<?xml version="1.0" encoding="utf-8"?>
<!-- Generator: Adobe Illustrator 15.0.0, SVG Export Plug-In  -->
<!DOCTYPE svg PUBLIC "-//W3C//DTD SVG 1.1//EN" "http://www.w3.org/Graphics/SVG/1.1/DTD/svg11.dtd" [
	<!ENTITY ns_flows "http://ns.adobe.com/Flows/1.0/">
]>
<svg version="1.1"
	 xmlns="http://www.w3.org/2000/svg" xmlns:xlink="http://www.w3.org/1999/xlink" xmlns:a="http://ns.adobe.com/AdobeSVGViewerExtensions/3.0/"
	 x="0px" y="0px" width="181px" height="181px" viewBox="0 0 181 181" enable-background="new 0 0 181 181" xml:space="preserve">
<defs>
</defs>
<path fill="#30A256" d="M159.157,0H22.055C9.875,0,0,9.874,0,22.054v137.103c0,12.181,9.875,22.055,22.055,22.055h64.041v-81.091
	c0-13.611-7.069-21.36-21.017-23.044c-3.208,6.262-10.831,10.87-18.208,10.87c-9.263,0-31.054-7.364-31.054-17.438
	c0-10.075,21.791-17.439,31.054-17.439c7.729,0,15.521,4.901,18.528,11.53c8.761,0.895,15.984,3.663,21.521,8.246
	c2.795-13.773,12.668-22.607,27.485-24.489c2.985-6.668,10.794-11.601,18.559-11.601c9.263,0,31.054,7.364,31.054,17.438
	s-21.791,17.438-31.054,17.438c-7.326,0-14.923-4.566-18.158-10.773c-10.938,1.705-16.26,8.444-16.26,20.571v99.783h60.61
	c12.18,0,22.054-9.874,22.054-22.055V22.054C181.211,9.874,171.337,0,159.157,0z"/>
<path fill="#30A256" d="M24.798,70.509c0,3.757,16.004,8.457,22.073,8.457c4.786,0,10.858-3.982,10.858-8.457
	s-6.072-8.456-10.858-8.456C40.802,62.053,24.798,66.751,24.798,70.509z"/>
<path fill="#9AC992" d="M155.038,54.194c0-3.758-16.004-8.457-22.073-8.457c-4.786,0-10.858,3.981-10.858,8.457
	c0,4.476,6.072,8.458,10.858,8.458C139.034,62.652,155.038,57.952,155.038,54.194z"/>
</svg>
