<?xml version="1.0" encoding="utf-8"?>
<!-- Generator: Adobe Illustrator 15.0.0, SVG Export Plug-In  -->
<!DOCTYPE svg PUBLIC "-//W3C//DTD SVG 1.1//EN" "http://www.w3.org/Graphics/SVG/1.1/DTD/svg11.dtd" [
	<!ENTITY ns_flows "http://ns.adobe.com/Flows/1.0/">
]>
<svg version="1.1"
	 xmlns="http://www.w3.org/2000/svg" xmlns:xlink="http://www.w3.org/1999/xlink" xmlns:a="http://ns.adobe.com/AdobeSVGViewerExtensions/3.0/"
	 x="0px" y="0px" width="477px" height="223px" viewBox="0 0 477 223" enable-background="new 0 0 477 223" xml:space="preserve">
<defs>
</defs>
<path fill="#9AC992" d="M274.941,89.79c-9.375-8.973-22.405-13.522-38.729-13.522h-25.461c-6.628,0-12,5.373-12,12s5.372,12,12,12h25.461
	c19.84,0,29.08,8.68,29.08,27.316v0.725h-24.972c-0.03,0-0.059,0.004-0.089,0.005c-0.03-0.001-0.059-0.005-0.089-0.005
	c-30.207,0-48.972,18.157-48.972,47.385s18.765,47.385,48.972,47.385h37.149c6.627,0,12-5.373,12-12v-78.633v-4.861
	C289.293,111.845,284.33,98.776,274.941,89.79z M215.172,175.693c0-15.954,7.935-23.385,24.972-23.385
	c0.03,0,0.059-0.004,0.089-0.005c0.03,0.001,0.059,0.005,0.089,0.005h24.972v46.77h-25.149
	C223.106,199.078,215.172,191.647,215.172,175.693z"/>
<path fill="#9AC992" d="M20,43.998c-11.047,0-20,8.953-20,20c0,6.537,3.15,12.323,8,15.973v11.171v119.937c0,6.627,5.372,12,12,12
	c6.627,0,12-5.373,12-12V91.142V79.971c4.85-3.649,8-9.436,8-15.973C40,52.951,31.045,43.998,20,43.998z M20,72.755
	c-4.837,0-8.758-3.922-8.758-8.757c0-4.837,3.921-8.757,8.758-8.757c4.836,0,8.756,3.92,8.756,8.757
	C28.756,68.833,24.836,72.755,20,72.755z"/>
<path fill="#9AC992" d="M152.941,89.79c-9.371-8.969-22.395-13.518-38.707-13.522c-0.002,0-0.005,0-0.008,0L75.02,76.221
	c-6.547,0-12.014,5.463-12.014,12v122.857c0,6.627,5.373,12,12,12s12-5.373,12-12V100.235l27.193,0.033c0.004,0,0.009,0,0.014,0
	c19.84,0,29.08,8.68,29.08,27.316v4.861v78.633c0,6.627,5.373,12,12,12s12-5.373,12-12v-78.633v-4.861
	C167.293,111.845,162.33,98.776,152.941,89.79C143.57,80.821,162.33,98.776,152.941,89.79z"/>
<path fill="#9AC992" d="M477.481,88.26c0-6.627-5.373-12-12-12s-12,5.373-12,12v110.843l-27.192-0.032c-0.006,0-0.01,0-0.015,0
	c-19.84,0-29.08-8.68-29.08-27.316v-4.861V88.26c0-6.627-5.373-12-12-12s-12,5.373-12,12v78.633v4.861
	c0,15.739,4.963,28.809,14.352,37.794c9.371,8.969,22.394,13.518,38.706,13.522c0.003,0,0.005,0,0.008,0l39.207,0.047
	c6.536,0,12.015-5.459,12.015-12V88.26C477.481,81.632,477.481,88.26,477.481,88.26z"/>
<path fill="#9AC992" d="M381.996,0c-6.564,0-13.451,3.164-17.957,8.05c-20.334,0.755-34.938,10.34-41.275,26.263
	c-8.126-5.146-18.285-7.915-30.314-8.264c-4.506-4.882-11.389-8.043-17.951-8.043c-11.047,0-37,8.955-37,20
	c0,11.047,25.953,20,37,20c6.521,0,13.357-3.122,17.865-7.952c24.029,0.892,26.885,14.56,26.885,24.927v6v142.098h24V80.98v-12
	V54.006c0-14.404,6.481-21.245,20.903-21.938C368.659,36.887,375.484,40,381.996,40c11.047,0,37-8.953,37-20
	C418.996,8.955,393.043,0,381.996,0z M272.468,46.763c-4.837,0-20.827-3.92-20.827-8.757c0-4.835,15.99-8.756,20.827-8.756
	c4.835,0,10.886,3.92,10.886,8.756C283.354,42.843,277.303,46.763,272.468,46.763z M384.026,28.757
	c-4.836,0-10.886-3.92-10.886-8.757c0-4.835,6.05-8.756,10.886-8.756c4.837,0,20.827,3.92,20.827,8.756
	C404.854,24.837,388.863,28.757,384.026,28.757z"/>
</svg>
