<?xml version="1.0" encoding="UTF-8" standalone="no"?>
<svg
   xmlns:dc="http://purl.org/dc/elements/1.1/"
   xmlns:cc="http://creativecommons.org/ns#"
   xmlns:rdf="http://www.w3.org/1999/02/22-rdf-syntax-ns#"
   xmlns:svg="http://www.w3.org/2000/svg"
   xmlns="http://www.w3.org/2000/svg"
   xmlns:sodipodi="http://sodipodi.sourceforge.net/DTD/sodipodi-0.dtd"
   xmlns:inkscape="http://www.inkscape.org/namespaces/inkscape"
   version="1.1"
   x="0px"
   y="0px"
   width="113px"
   height="180px"
   viewBox="0 0 113 180"
   enableBackground="new 0 0 113 180"
   id="svg12"
   sodipodi:docname="light_h.svg"
   inkscape:version="1.0.1 (0767f8302a, 2020-10-17)">
  <metadata
     id="metadata16">
    <rdf:RDF>
      <cc:Work
         rdf:about="">
        <dc:format>image/svg+xml</dc:format>
        <dc:type
           rdf:resource="http://purl.org/dc/dcmitype/StillImage" />
      </cc:Work>
    </rdf:RDF>
  </metadata>
  <sodipodi:namedview
     pagecolor="#ffffff"
     bordercolor="#666666"
     borderopacity="1"
     objecttolerance="10"
     gridtolerance="10"
     guidetolerance="10"
     inkscape:pageopacity="0"
     inkscape:pageshadow="2"
     inkscape:window-width="1296"
     inkscape:window-height="704"
     id="namedview14"
     showgrid="false"
     inkscape:zoom="3.1555556"
     inkscape:cx="93.853545"
     inkscape:cy="101.90407"
     inkscape:window-x="70"
     inkscape:window-y="27"
     inkscape:window-maximized="1"
     inkscape:current-layer="svg12" />
  <defs
     id="defs2">
    <marker
       style="overflow:visible"
       id="DotL"
       refX="0.0"
       refY="0.0"
       orient="auto"
       inkscape:stockid="DotL"
       inkscape:isstock="true">
      <path
         transform="scale(0.8) translate(7.4, 1)"
         style="fill-rule:evenodd;stroke:#fdd79d;stroke-width:1pt;stroke-opacity:1;fill:#fdd79d;fill-opacity:1"
         d="M -2.5,-1.0 C -2.5,1.7600000 -4.7400000,4.0 -7.5,4.0 C -10.260000,4.0 -12.5,1.7600000 -12.5,-1.0 C -12.5,-3.7600000 -10.260000,-6.0 -7.5,-6.0 C -4.7400000,-6.0 -2.5,-3.7600000 -2.5,-1.0 z "
         id="path902" />
    </marker>
    <marker
       style="overflow:visible"
       id="Arrow1Lstart"
       refX="0.0"
       refY="0.0"
       orient="auto"
       inkscape:stockid="Arrow1Lstart"
       inkscape:isstock="true">
      <path
         transform="scale(0.8) translate(12.5,0)"
         style="fill-rule:evenodd;stroke:#fdd79d;stroke-width:1pt;stroke-opacity:1;fill:#fdd79d;fill-opacity:1"
         d="M 0.0,0.0 L 5.0,-5.0 L -12.5,0.0 L 5.0,5.0 L 0.0,0.0 z "
         id="path841" />
    </marker>
  </defs>
  <path
     fill="none"
     stroke="#fdd79d"
     strokeWidth="10"
     strokeMiterlimit="10"
     d="M 90.744,94.965005 C 101.336,85.533005 108,71.799005 108,56.500004 108,28.057002 84.943,4.9999998 56.5,4.9999998 c -28.442,0 -51.5000002,23.0570022 -51.5000002,51.5000042 0,15.299001 6.6650002,29.033001 17.2570002,38.465001 8.422,7.865005 12.849,10.040005 12.849,28.037005 V 137.745 H 56.5 c 10e-4,0 21.396,0 21.396,0 v -14.74299 c 0,-17.997 4.426,-20.172 12.848,-28.037005 z"
     id="path4"
     style="stroke-width:8;stroke-miterlimit:4;stroke-dasharray:none" />
  <path
     fill="none"
     stroke="#fdd79d"
     strokeWidth="10"
     strokeMiterlimit="10"
     d="M 56.607867,137.206 H 78.191 c 0,0 -0.169051,19.168 -7.908806,25.531 H 56.607867 42.933541 c -7.739755,-6.362 -7.908806,-25.531 -7.908806,-25.531 z"
     id="path6"
     style="stroke-width:8;stroke-miterlimit:4;stroke-dasharray:none" />
  <line
     fill="none"
     stroke="#fdd79d"
     strokeWidth="10"
     strokeMiterlimit="10"
     x1="36.470001"
     y1="153.53799"
     x2="76.249001"
     y2="153.53799"
     id="line8"
     style="stroke-width:6;stroke-miterlimit:4;stroke-dasharray:none" />
  <path
     fill="none"
     stroke="#fdd79d"
     strokeWidth="15"
     strokeLinecap="round"
     strokeMiterlimit="10"
     d="m 23.762967,53.279485 c 0.817,-14.983 12.699,-27.022 27.615,-28.088"
     id="path10"
     style="stroke-width:10;stroke-miterlimit:4;stroke-dasharray:none;stroke-linejoin:round;stroke-linecap:round" />
</svg>
