<?xml version="1.0" encoding="utf-8"?>
<!-- Generator: Adobe Illustrator 15.0.0, SVG Export Plug-In  -->
<!DOCTYPE svg PUBLIC "-//W3C//DTD SVG 1.1//EN" "http://www.w3.org/Graphics/SVG/1.1/DTD/svg11.dtd" [
	<!ENTITY ns_flows "http://ns.adobe.com/Flows/1.0/">
]>
<svg version="1.1"
	 xmlns="http://www.w3.org/2000/svg"
	 x="0px" y="0px" width="177px" height="177px" viewBox="0 0 177 177" enableBackground="new 0 0 177 177">
<defs>
</defs>
<path d="M88.665,0C39.775,0,0,39.774,0,88.664c0,48.889,39.775,88.664,88.665,88.664s88.664-39.774,88.664-88.664
	C177.329,39.774,137.554,0,88.665,0z M113.018,109.303l-0.436,0.298v28.825l-2.437,1.035c-6.79,2.884-14.017,4.346-21.481,4.346
	c-7.47,0-14.699-1.46-21.483-4.34l-2.437-1.035v-28.831l-0.436-0.298c-11.779-8.066-18.812-21.389-18.812-35.638
	c0-23.802,19.365-43.167,43.167-43.167c23.802,0,43.166,19.365,43.166,43.167C131.831,87.916,124.798,101.238,113.018,109.303z"/>
<path d="M76.744,130.148c7.677,2.202,16.151,2.206,23.838-0.003v-26.872l5.657-3.872c8.51-5.826,13.591-15.447,13.591-25.737
	c0-17.186-13.981-31.167-31.166-31.167c-17.186,0-31.167,13.981-31.167,31.167c0,10.288,5.082,19.909,13.593,25.738l5.654,3.874
	V130.148z"/>
</svg>
