<?xml version="1.0" encoding="utf-8"?>
<!-- Generator: Adobe Illustrator 15.0.0, SVG Export Plug-In  -->
<!DOCTYPE svg PUBLIC "-//W3C//DTD SVG 1.1//EN" "http://www.w3.org/Graphics/SVG/1.1/DTD/svg11.dtd" [
	<!ENTITY ns_flows "http://ns.adobe.com/Flows/1.0/">
]>
<svg version="1.1"
	 xmlns="http://www.w3.org/2000/svg" xmlns:xlink="http://www.w3.org/1999/xlink" xmlns:a="http://ns.adobe.com/AdobeSVGViewerExtensions/3.0/"
	 x="0px" y="0px" width="175px" height="175px" viewBox="0 0 175 175" enable-background="new 0 0 175 175" xml:space="preserve">
<defs>
</defs>
<path fill="#CCCCCC" d="M87.664,0C39.326,0,0,39.326,0,87.664s39.326,87.664,87.664,87.664s87.664-39.326,87.664-87.664
	S136.002,0,87.664,0z"/>
<path fill="#878787" d="M87.664,0C39.326,0,0,39.326,0,87.664s39.326,87.664,87.664,87.664s87.664-39.326,87.664-87.664
	S136.002,0,87.664,0z M110.888,106.652l-1.306,0.895v28.58l-1.864,0.763c-6.353,2.6-13.1,3.917-20.054,3.917
	c-6.961,0-13.709-1.316-20.056-3.913l-1.864-0.763v-28.584l-1.305-0.894c-11.235-7.695-17.943-20.401-17.943-33.989
	c0-22.699,18.468-41.167,41.168-41.167c22.699,0,41.166,18.468,41.166,41.167C128.83,86.254,122.123,98.96,110.888,106.652z"/>
</svg>
