<?xml version="1.0" encoding="utf-8"?>
<!-- Generator: Adobe Illustrator 15.0.0, SVG Export Plug-In  -->
<!DOCTYPE svg PUBLIC "-//W3C//DTD SVG 1.1//EN" "http://www.w3.org/Graphics/SVG/1.1/DTD/svg11.dtd" [
	<!ENTITY ns_flows "http://ns.adobe.com/Flows/1.0/">
]>
<svg version="1.1"
	 xmlns="http://www.w3.org/2000/svg"
	 x="0px" y="0px" width="192px" height="133px" viewBox="0 0 192 133" enableBackground="new 0 0 192 133">
<defs>
</defs>
<path fill="none" stroke="current" strokeWidth="10" strokeMiterlimit="10" d="M186.86,97.451c0-15.922-12.099-29.02-27.604-30.6
	c0.24-1.553,0.367-3.144,0.367-4.763c0-16.99-13.772-30.763-30.762-30.763c-4.478,0-8.725,0.964-12.561,2.684
	C110.217,17.096,94.038,5,75.031,5C50.813,5,31.18,24.634,31.18,48.852c0,6.362,1.365,12.401,3.804,17.857
	C18.354,67.125,5,80.724,5,97.451c0,16.989,13.771,30.763,30.762,30.763h123.862v-0.207
	C174.953,126.257,186.86,113.248,186.86,97.451z"/>
</svg>
