<?xml version="1.0" encoding="UTF-8" standalone="no"?>
<svg
   x="0px"
   y="0px"
   width="232.31953"
   height="232.35762"
   viewBox="0 0 232.31953 232.35762"
   enableBackground="new 0 0 113 180"
   id="svg12">
  <g
     id="g3414"
     transform="matrix(0.99191968,0,0,0.99823771,66.744529,22.810581)">
    <g
       id="g121">
      <path
         id="path1268"
         style="color:#000000;font-style:normal;font-variant:normal;font-weight:normal;font-stretch:normal;font-size:medium;line-height:normal;font-family:sans-serif;font-variant-ligatures:normal;font-variant-position:normal;font-variant-caps:normal;font-variant-numeric:normal;font-variant-alternates:normal;font-variant-east-asian:normal;font-feature-settings:normal;font-variation-settings:normal;text-indent:0;text-align:start;text-decoration:none;text-decoration-line:none;text-decoration-style:solid;text-decoration-color:#000000;letter-spacing:normal;word-spacing:normal;text-transform:none;writing-mode:lr-tb;direction:ltr;text-orientation:mixed;dominant-baseline:auto;baseline-shift:baseline;text-anchor:start;white-space:normal;shape-padding:0;shape-margin:0;inline-size:0;clip-rule:nonzero;display:inline;overflow:visible;visibility:visible;opacity:1;isolation:auto;mix-blend-mode:normal;color-interpolation:sRGB;color-interpolation-filters:linearRGB;solid-color:#000000;solid-opacity:1;vector-effect:none;fill:#fdd79d;fill-opacity:1;fill-rule:nonzero;stroke:none;stroke-width:5.27282;stroke-linecap:butt;stroke-linejoin:round;stroke-miterlimit:4;stroke-dasharray:none;stroke-dashoffset:0;stroke-opacity:1;color-rendering:auto;image-rendering:auto;shape-rendering:auto;text-rendering:auto;enable-background:accumulate;stop-color:#000000;stop-opacity:1"
         d="M 116.16016,3.0097656 A 113.16928,113.16927 0 0 0 2.9902344,116.17969 113.16928,113.16927 0 0 0 116.16016,229.34766 113.16928,113.16927 0 0 0 229.32812,116.17969 113.16928,113.16927 0 0 0 116.16016,3.0097656 Z M 146.5957,34.107422 a 2.6283143,2.6450554 0 0 1 1.29492,0.357422 l 11.9961,7.046875 3.61523,2.109375 -0.006,0.01172 7.70508,4.525391 a 2.6283143,2.6450554 0 0 1 0.97656,3.556641 l -62.23632,114.037104 -0.0176,0.0312 a 2.6283143,2.6450554 0 0 0 0,0.002 2.6283143,2.6450554 0 0 1 -0.22461,0.34179 2.6283143,2.6450554 0 0 1 -0.0859,0.10743 2.6283143,2.6450554 0 0 1 -0.0898,0.10156 2.6283143,2.6450554 0 0 0 -0.002,0 2.6283143,2.6450554 0 0 1 -0.30273,0.27344 l -32.716797,25.21484 a 2.6283143,2.6450554 0 0 1 -1.412109,0.53711 2.6283143,2.6450554 0 0 1 -0.136719,0.006 2.6283143,2.6450554 0 0 1 -2.611328,-3.22852 l 8.933594,-39.47656 a 2.6283143,2.6450554 0 0 1 0.01563,-0.0645 2.6283143,2.6450554 0 0 1 0.0332,-0.12305 2.6283143,2.6450554 0 0 1 0.0039,-0.01 2.6283143,2.6450554 0 0 1 0.03906,-0.11914 2.6283143,2.6450554 0 0 1 0.0039,-0.01 2.6283143,2.6450554 0 0 1 0.04687,-0.11719 2.6283143,2.6450554 0 0 1 0.0039,-0.01 2.6283143,2.6450554 0 0 1 0.0098,-0.0234 2.6283143,2.6450554 0 0 1 0.04687,-0.10157 2.6283143,2.6450554 0 0 1 0.05859,-0.11132 2.6283143,2.6450554 0 0 1 0.0039,-0.01 L 144.26758,35.466797 a 2.6283143,2.6450554 0 0 1 2.32812,-1.359375 z m 0.96094,6.289062 L 87.375,149.29102 92.712891,152.49219 152.31055,43.1875 Z m 13.41602,7.878907 -59.49024,109.472659 5.14649,3.08593 59.71093,-109.406246 z M 85.599609,154.38281 80.75,175.80273 l 4.40625,2.68946 17.78516,-13.70899 -1.32422,-0.79492 -5.103518,-3.06055 -0.373047,-0.22265 -5.960937,-3.56641 0.0039,-0.008 z"
         transform="matrix(1.0081461,0,0,1.0017654,-67.28824,-22.850851)" />
      <ellipse
         style="fill:none;fill-opacity:1;stroke:#fdd79d;stroke-width:6.0297;stroke-linecap:round;stroke-linejoin:round;stroke-miterlimit:4;stroke-dasharray:none;stroke-opacity:1;stop-color:#000000"
         id="path153" />
    </g>
  </g>
</svg>
