<?xml version="1.0" encoding="utf-8"?>
<!-- Generator: Adobe Illustrator 15.0.0, SVG Export Plug-In  -->
<!DOCTYPE svg PUBLIC "-//W3C//DTD SVG 1.1//EN" "http://www.w3.org/Graphics/SVG/1.1/DTD/svg11.dtd" [
	<!ENTITY ns_flows "http://ns.adobe.com/Flows/1.0/">
]>
<svg version="1.1"
	 xmlns="http://www.w3.org/2000/svg"
	 x="0px" y="0px" width="113px" height="180px" viewBox="0 0 113 180" enableBackground="new 0 0 113 180">
<defs>
</defs>
<path fill="none" stroke="current" strokeWidth="10" strokeMiterlimit="10" d="M90.744,94.965C101.336,85.533,108,71.799,108,56.5
	C108,28.057,84.943,5,56.5,5C28.058,5,5,28.057,5,56.5c0,15.299,6.665,29.033,17.257,38.465c8.422,7.865,12.849,10.04,12.849,28.037
	v14.743H56.5c0.001,0,21.396,0,21.396,0v-14.743C77.896,105.005,82.322,102.83,90.744,94.965z"/>
<path fill="none" stroke="current" strokeWidth="10" strokeMiterlimit="10" d="M56.359,149.206h21.832c0,0-0.171,19.168-8,25.531
	H56.359H42.527c-7.829-6.362-8-25.531-8-25.531H56.359z"/>
<line fill="none" stroke="current" strokeWidth="10" strokeMiterlimit="10" x1="36.47" y1="163.538" x2="76.249" y2="163.538"/>
<path fill="#FFFFFF" stroke="current" strokeWidth="15" strokeLinecap="round" strokeMiterlimit="10" d="M28.729,56.847
	c0.817-14.983,12.699-27.022,27.615-28.088"/>
</svg>
